<svg width="89" height="20" viewBox="0 0 89 20" fill="none" xmlns="http://www.w3.org/2000/svg">
<path d="M6.13636 15.2131C5.01894 15.2131 4.05777 14.9763 3.25284 14.5028C2.45265 14.0246 1.83712 13.3617 1.40625 12.5142C0.980114 11.6667 0.767045 10.6913 0.767045 9.58807C0.767045 8.47064 0.982481 7.49053 1.41335 6.64773C1.84896 5.80019 2.46686 5.13968 3.26705 4.66619C4.06723 4.18797 5.01894 3.94886 6.12216 3.94886C7.07386 3.94886 7.9072 4.12169 8.62216 4.46733C9.33712 4.81297 9.90294 5.2983 10.3196 5.9233C10.7363 6.5483 10.9659 7.2822 11.0085 8.125H8.15341C8.07292 7.58049 7.85985 7.14252 7.5142 6.81108C7.1733 6.47491 6.72585 6.30682 6.17188 6.30682C5.70312 6.30682 5.29356 6.43466 4.94318 6.69034C4.59754 6.94129 4.32765 7.30824 4.13352 7.79119C3.93939 8.27415 3.84233 8.8589 3.84233 9.54545C3.84233 10.2415 3.93703 10.8333 4.12642 11.321C4.32055 11.8087 4.5928 12.1804 4.94318 12.4361C5.29356 12.6918 5.70312 12.8196 6.17188 12.8196C6.51752 12.8196 6.82765 12.7486 7.10227 12.6065C7.38163 12.4645 7.61127 12.2585 7.79119 11.9886C7.97585 11.714 8.09659 11.3849 8.15341 11.0014H11.0085C10.9612 11.8348 10.7339 12.5687 10.3267 13.2031C9.92424 13.8329 9.3679 14.3253 8.65767 14.6804C7.94744 15.0355 7.10701 15.2131 6.13636 15.2131ZM17.8746 15.2131C16.7714 15.2131 15.8174 14.9787 15.0124 14.5099C14.2122 14.0365 13.5943 13.3783 13.1587 12.5355C12.7231 11.688 12.5053 10.7055 12.5053 9.58807C12.5053 8.46117 12.7231 7.47633 13.1587 6.63352C13.5943 5.78598 14.2122 5.12784 15.0124 4.65909C15.8174 4.18561 16.7714 3.94886 17.8746 3.94886C18.9779 3.94886 19.9296 4.18561 20.7298 4.65909C21.5347 5.12784 22.1549 5.78598 22.5906 6.63352C23.0262 7.47633 23.244 8.46117 23.244 9.58807C23.244 10.7055 23.0262 11.688 22.5906 12.5355C22.1549 13.3783 21.5347 14.0365 20.7298 14.5099C19.9296 14.9787 18.9779 15.2131 17.8746 15.2131ZM17.8888 12.8693C18.3907 12.8693 18.8098 12.7273 19.146 12.4432C19.4821 12.1544 19.7354 11.7614 19.9059 11.2642C20.0811 10.767 20.1687 10.2012 20.1687 9.56676C20.1687 8.93229 20.0811 8.36648 19.9059 7.86932C19.7354 7.37216 19.4821 6.97917 19.146 6.69034C18.8098 6.40151 18.3907 6.2571 17.8888 6.2571C17.3822 6.2571 16.9561 6.40151 16.6104 6.69034C16.2695 6.97917 16.0115 7.37216 15.8363 7.86932C15.6658 8.36648 15.5806 8.93229 15.5806 9.56676C15.5806 10.2012 15.6658 10.767 15.8363 11.2642C16.0115 11.7614 16.2695 12.1544 16.6104 12.4432C16.9561 12.7273 17.3822 12.8693 17.8888 12.8693ZM29.2312 15.1776C28.4026 15.1776 27.6521 14.9645 26.9798 14.5384C26.3121 14.1075 25.7818 13.4754 25.3888 12.642C25.0006 11.804 24.8065 10.7765 24.8065 9.55966C24.8065 8.30966 25.0077 7.27036 25.4102 6.44176C25.8126 5.60843 26.3477 4.9858 27.0153 4.57386C27.6876 4.1572 28.4239 3.94886 29.2241 3.94886C29.8349 3.94886 30.3439 4.05303 30.7511 4.26136C31.163 4.46496 31.4944 4.72064 31.7454 5.02841C32.0011 5.33144 32.1952 5.62973 32.3278 5.9233H32.4201V0.454545H35.4386V15H32.4556V13.2528H32.3278C32.1857 13.5559 31.9845 13.8565 31.7241 14.1548C31.4684 14.4484 31.1346 14.6922 30.7227 14.8864C30.3155 15.0805 29.8183 15.1776 29.2312 15.1776ZM30.19 12.7699C30.6777 12.7699 31.0896 12.6373 31.4258 12.3722C31.7667 12.1023 32.0271 11.7259 32.207 11.2429C32.3917 10.7599 32.484 10.1941 32.484 9.54545C32.484 8.89678 32.3941 8.33333 32.2141 7.85511C32.0342 7.37689 31.7738 7.00758 31.4329 6.74716C31.092 6.48674 30.6777 6.35653 30.19 6.35653C29.6928 6.35653 29.2738 6.49148 28.9329 6.76136C28.592 7.03125 28.3339 7.4053 28.1587 7.88352C27.9835 8.36174 27.896 8.91572 27.896 9.54545C27.896 10.1799 27.9835 10.741 28.1587 11.2287C28.3387 11.7116 28.5967 12.0904 28.9329 12.3651C29.2738 12.6349 29.6928 12.7699 30.19 12.7699ZM42.8977 15.2131C41.7756 15.2131 40.8097 14.9858 40 14.5312C39.1951 14.072 38.5748 13.4233 38.1392 12.5852C37.7036 11.7424 37.4858 10.7457 37.4858 9.59517C37.4858 8.47301 37.7036 7.48816 38.1392 6.64062C38.5748 5.79309 39.188 5.13258 39.9787 4.65909C40.7741 4.18561 41.7069 3.94886 42.777 3.94886C43.4967 3.94886 44.1667 4.06487 44.7869 4.29688C45.4119 4.52415 45.9564 4.86742 46.4205 5.3267C46.8892 5.78598 47.2538 6.36364 47.5142 7.05966C47.7746 7.75095 47.9048 8.56061 47.9048 9.48864V10.3196H38.6932V8.4446H45.0568C45.0568 8.009 44.9621 7.62311 44.7727 7.28693C44.5833 6.95076 44.3205 6.68797 43.9844 6.49858C43.6529 6.30445 43.267 6.20739 42.8267 6.20739C42.3674 6.20739 41.9602 6.31392 41.6051 6.52699C41.2547 6.73532 40.9801 7.01705 40.7812 7.37216C40.5824 7.72254 40.4806 8.11316 40.4759 8.54403V10.3267C40.4759 10.8665 40.5753 11.3329 40.7741 11.7259C40.9777 12.1188 41.2642 12.4219 41.6335 12.6349C42.0028 12.848 42.4408 12.9545 42.9474 12.9545C43.2836 12.9545 43.5914 12.9072 43.8707 12.8125C44.1501 12.7178 44.3892 12.5758 44.5881 12.3864C44.7869 12.197 44.9384 11.965 45.0426 11.6903L47.8409 11.875C47.6989 12.5473 47.4077 13.1345 46.9673 13.6364C46.5317 14.1335 45.9683 14.5218 45.277 14.8011C44.5904 15.0758 43.7973 15.2131 42.8977 15.2131ZM49.8793 19.0909V4.09091H52.8622V5.9233H52.9972C53.1297 5.62973 53.3215 5.33144 53.5724 5.02841C53.8281 4.72064 54.1596 4.46496 54.5668 4.26136C54.9787 4.05303 55.4901 3.94886 56.1009 3.94886C56.8963 3.94886 57.6302 4.1572 58.3026 4.57386C58.9749 4.9858 59.5123 5.60843 59.9148 6.44176C60.3172 7.27036 60.5185 8.30966 60.5185 9.55966C60.5185 10.7765 60.322 11.804 59.929 12.642C59.5407 13.4754 59.0104 14.1075 58.3381 14.5384C57.6705 14.9645 56.9223 15.1776 56.0938 15.1776C55.5066 15.1776 55.0071 15.0805 54.5952 14.8864C54.188 14.6922 53.8542 14.4484 53.5938 14.1548C53.3333 13.8565 53.1345 13.5559 52.9972 13.2528H52.9048V19.0909H49.8793ZM52.8409 9.54545C52.8409 10.1941 52.9309 10.7599 53.1108 11.2429C53.2907 11.7259 53.5511 12.1023 53.892 12.3722C54.233 12.6373 54.6473 12.7699 55.1349 12.7699C55.6274 12.7699 56.044 12.6349 56.3849 12.3651C56.7259 12.0904 56.9839 11.7116 57.1591 11.2287C57.339 10.741 57.429 10.1799 57.429 9.54545C57.429 8.91572 57.3414 8.36174 57.1662 7.88352C56.991 7.4053 56.733 7.03125 56.392 6.76136C56.0511 6.49148 55.6321 6.35653 55.1349 6.35653C54.6425 6.35653 54.2259 6.48674 53.8849 6.74716C53.5488 7.00758 53.2907 7.37689 53.1108 7.85511C52.9309 8.33333 52.8409 8.89678 52.8409 9.54545ZM65.6463 15.206C64.9503 15.206 64.33 15.0852 63.7855 14.8438C63.241 14.5975 62.8101 14.2353 62.4929 13.7571C62.1804 13.2741 62.0241 12.6728 62.0241 11.9531C62.0241 11.3471 62.1354 10.8381 62.358 10.4261C62.5805 10.0142 62.8835 9.68277 63.267 9.43182C63.6506 9.18087 64.0862 8.99148 64.5739 8.86364C65.0663 8.7358 65.5824 8.64583 66.1222 8.59375C66.7566 8.52746 67.268 8.46591 67.6562 8.40909C68.0445 8.34754 68.3262 8.25758 68.5014 8.1392C68.6766 8.02083 68.7642 7.84564 68.7642 7.61364V7.57102C68.7642 7.12121 68.6222 6.7732 68.3381 6.52699C68.0587 6.28078 67.661 6.15767 67.1449 6.15767C66.6004 6.15767 66.1671 6.27841 65.8452 6.51989C65.5232 6.75663 65.3101 7.05492 65.206 7.41477L62.4077 7.1875C62.5497 6.52462 62.8291 5.9517 63.2457 5.46875C63.6624 4.98106 64.1998 4.60701 64.858 4.34659C65.5208 4.08144 66.2879 3.94886 67.1591 3.94886C67.7652 3.94886 68.3452 4.01989 68.8991 4.16193C69.4579 4.30398 69.9527 4.52415 70.3835 4.82244C70.8191 5.12074 71.1624 5.50426 71.4134 5.97301C71.6643 6.43703 71.7898 6.99337 71.7898 7.64205V15H68.9205V13.4872H68.8352C68.66 13.8281 68.4257 14.1288 68.1321 14.3892C67.8385 14.6449 67.4858 14.8461 67.0739 14.9929C66.6619 15.1349 66.1861 15.206 65.6463 15.206ZM66.5128 13.1179C66.9579 13.1179 67.3509 13.0303 67.6918 12.8551C68.0327 12.6752 68.3002 12.4337 68.4943 12.1307C68.6884 11.8277 68.7855 11.4844 68.7855 11.1009V9.94318C68.6908 10.0047 68.5606 10.0616 68.3949 10.1136C68.2339 10.161 68.0516 10.206 67.848 10.2486C67.6444 10.2865 67.4408 10.322 67.2372 10.3551C67.0336 10.3835 66.849 10.4096 66.6832 10.4332C66.3281 10.4853 66.018 10.5682 65.7528 10.6818C65.4877 10.7955 65.2817 10.9493 65.1349 11.1435C64.9882 11.3329 64.9148 11.5696 64.9148 11.8537C64.9148 12.2656 65.0639 12.5805 65.3622 12.7983C65.6652 13.0114 66.0488 13.1179 66.5128 13.1179ZM75.6143 19.0909C75.2308 19.0909 74.871 19.0601 74.5348 18.9986C74.2034 18.9418 73.9287 18.8684 73.7109 18.7784L74.3928 16.5199C74.7479 16.6288 75.0675 16.688 75.3516 16.6974C75.6404 16.7069 75.889 16.6406 76.0973 16.4986C76.3104 16.3565 76.4832 16.1151 76.6158 15.7741L76.7933 15.3125L72.88 4.09091H76.0618L78.3203 12.1023H78.4339L80.7138 4.09091H83.9169L79.6768 16.179C79.4732 16.7661 79.1963 17.2775 78.8459 17.7131C78.5002 18.1534 78.0623 18.492 77.532 18.7287C77.0017 18.9702 76.3625 19.0909 75.6143 19.0909ZM86.5501 15.1847C86.0813 15.1847 85.6789 15.0189 85.3427 14.6875C85.0112 14.3513 84.8455 13.9489 84.8455 13.4801C84.8455 13.0161 85.0112 12.6184 85.3427 12.2869C85.6789 11.9555 86.0813 11.7898 86.5501 11.7898C87.0046 11.7898 87.4023 11.9555 87.7433 12.2869C88.0842 12.6184 88.2546 13.0161 88.2546 13.4801C88.2546 13.7926 88.1741 14.0791 88.0131 14.3395C87.8569 14.5952 87.6509 14.8011 87.3952 14.9574C87.1396 15.1089 86.8578 15.1847 86.5501 15.1847Z" fill="#4A5568"/>
</svg>
